Simulation
nRows=40
nColumns=15
endheader
time  TH_x TH_y TH_z SC_y  SC_z  SC_x  AC_y  AC_z  AC_x  GH_y  GH_z  GH_yy  EL_x  PS_y
0.0  0.000000  0.000000  0.000000  -29.48472519363317  -3.389788251990835  11.73871975973203  54.175158692266024  -6.222642034844473  -11.79724813046535  18.40091697339022  11.91325341453057  5.500109788066548  25.90735856808209  0.000000
0.015  0.000000  0.000000  0.000000  -29.495861232312397  -3.269781203801385  11.918382630977348  54.189691892981806  -6.021681491164373  -11.764060333320028  18.28496077939001  12.211558255667196  5.565533146729968  25.788339432759038  0.000000
0.03  0.000000  0.000000  0.000000  -29.479589184751088  -3.1583822434039557  12.090271551774222  54.21484252624132  -5.874810795920935  -11.74978680968975  18.242696947805555  12.571671230535014  5.519897328547617  25.66505072592561  0.000000
0.045  0.000000  0.000000  0.000000  -29.476600885630873  -3.069035941954598  12.25411016123156  54.263278406209544  -5.763266507968741  -11.761359197971261  18.24244076082969  12.993312324479025  5.395374792810814  25.58223944915222  0.000000
0.06  0.000000  0.000000  0.000000  -29.479412999521823  -2.989912688593994  12.41459280757996  54.30227618191702  -5.686395052288798  -11.782851832241517  18.278797098172735  13.458709863809323  5.19170292844283  25.523380798271972  0.000000
0.075  0.000000  0.000000  0.000000  -29.47983503384646  -2.9164681049106354  12.57124223646065  54.3267778365776  -5.640876337627768  -11.80827294421796  18.360575068737116  13.960175730128789  4.894076125525725  25.46834143961768  0.000000
0.09  0.000000  0.000000  0.000000  -29.473339491005646  -2.8488595716711878  12.72412920989257  54.33885102559899  -5.620731880525209  -11.83759730524328  18.476278971034386  14.493673147880944  4.514733546621166  25.411990589850465  0.000000
0.105  0.000000  0.000000  0.000000  -29.45899384982299  -2.785898217706957  12.874829876888372  54.34055599462346  -5.622160689399729  -11.87135192896882  18.61676502558857  15.056289634649408  4.064859543804174  25.352059172070295  0.000000
0.12  0.000000  0.000000  0.000000  -29.438160159060516  -2.7253905372562937  13.026883776323622  54.330618006076385  -5.642740270754907  -11.908741672342781  18.771704219952298  15.644047704911769  3.5588310440216446  25.28875907966158  0.000000
0.135  0.000000  0.000000  0.000000  -29.412759618747852  -2.664916947383608  13.179329767441615  54.30941759944517  -5.677237976037167  -11.947145870163949  18.936490581061328  16.2541895155624  3.005008736691167  25.222397663393114  0.000000
0.15  0.000000  0.000000  0.000000  -29.383350833741478  -2.6018713555532202  13.33096836385796  54.278363602298825  -5.720532057323532  -11.984175853085752  19.10545227427317  16.884271529365016  2.413135987925856  25.15333856880957  0.000000
0.16499999999999998  0.000000  0.000000  0.000000  -29.350969184646903  -2.533474798648299  13.481524340246434  54.24110994759549  -5.769837816448693  -12.019488481483751  19.276814081841863  17.533802682242484  1.7882141335978894  25.081196870780012  0.000000
0.18  0.000000  0.000000  0.000000  -29.31914058122459  -2.4581949386909905  13.630775975573341  54.2019984956144  -5.821798818261265  -12.052672196521074  19.44702435412751  18.20238702515478  1.137963020070625  25.006202166223023  0.000000
0.195  0.000000  0.000000  0.000000  -29.29025013460901  -2.37604827672171  13.780002746063188  54.16371461669992  -5.873628998780123  -12.084938616421017  19.610792501729296  18.889314833659906  0.4707405159720615  24.928797458239263  0.000000
0.21  0.000000  0.000000  0.000000  -29.266351628543564  -2.287539518118719  13.928408588606498  54.12847200220049  -5.920707343958364  -12.115141296344301  19.76308638479912  19.593202353721818  -0.20474442619174024  24.849074886269445  0.000000
0.22499999999999998  0.000000  0.000000  0.000000  -29.24975859845051  -2.1929324699897115  14.075169300677688  54.0984380834095  -5.959392750087533  -12.140954140054252  19.901797068945196  20.31297500696494  -0.8829692305259503  24.766876049417093  0.000000
0.24  0.000000  0.000000  0.000000  -29.242032407457796  -2.09322972180412  14.221054833839728  54.07526279820897  -5.987179677588226  -12.161080683642082  20.02584798416779  21.047253074326044  -1.5595280308427129  24.682409542483512  0.000000
0.255  0.000000  0.000000  0.000000  -29.243204131910097  -1.9898635611101865  14.366936281973759  54.06052649899251  -6.0019995279869995  -12.17542009944431  20.135179678562885  21.79498598665436  -2.231366400123818  24.595939545002658  0.000000
0.27  0.000000  0.000000  0.000000  -29.25246809746065  -1.8843898549910705  14.514048397086427  54.05561763067381  -6.002131639590675  -12.184528101465862  20.230417942051275  22.55471556881502  -2.8960930778781337  24.507637163906068  0.000000
0.285  0.000000  0.000000  0.000000  -29.268604900456978  -1.7782479589539446  14.663479901420523  54.06149389535866  -5.986448904202418  -12.189291176243668  20.312563311869134  23.325234023660474  -3.552171873011313  24.417461067563533  0.000000
0.3  0.000000  0.000000  0.000000  -29.29025167371691  -1.6726602070157963  14.816265818820142  54.0786989783562  -5.954027529001753  -12.190684578760392  20.38276244458092  24.104909148975423  -4.198317202968567  24.325467163880788  0.000000
0.315  0.000000  0.000000  0.000000  -29.316145511517572  -1.568583043913228  14.973090169843731  54.10754865505791  -5.904370488381431  -12.189711370012555  20.442076751156  24.892392739012127  -4.833429993105632  24.23156978107309  0.000000
0.32999999999999996  0.000000  0.000000  0.000000  -29.345288507642653  -1.4667629108296838  15.134463558024281  54.14799431173502  -5.837060438264359  -12.187103897296232  20.491490865893816  25.685948102789215  -5.456496903162182  24.135624761899255  0.000000
0.345  0.000000  0.000000  0.000000  -29.37702871706173  -1.3677527254340534  15.300592889155917  54.19978451609456  -5.75200594206889  -12.183458143639411  20.53175670291051  26.484127007243064  -6.066552584173585  24.037405087969116  0.000000
0.36  0.000000  0.000000  0.000000  -29.410811914880494  -1.2718730531344902  15.471545613628393  54.262585880895564  -5.649057347878935  -12.179214779678839  20.56339890667303  27.285122152812814  -6.66222979690791  23.93673573210937  0.000000
0.375  0.000000  0.000000  0.000000  -29.44636009448791  -1.1792867557537465  15.647179339303255  54.33596386952226  -5.528311433869747  -12.174740753847194  20.586894579503713  28.087392611793216  -7.242586365874733  23.833443286421062  0.000000
0.39  0.000000  0.000000  0.000000  -29.483752429611126  -1.0901064494995638  15.827176247848312  54.41937037129041  -5.389828980260072  -12.17011378626705  20.603096186117046  28.889269638363245  -7.807326870429411  23.727217992535596  0.000000
0.40499999999999997  0.000000  0.000000  0.000000  -29.523231197513404  -1.0044681720581492  16.011091595161147  54.5121362551388  -5.233773237346489  -12.165359481287243  20.612822245454485  29.689401866319294  -8.356341876453452  23.617827256727324  0.000000
0.42  0.000000  0.000000  0.000000  -29.564938422017313  -0.9224092864728076  16.198520891103243  54.61363086336902  -5.060241501339918  -12.160435302446526  20.616785106403455  30.486229380322236  -8.88917475009643  23.505092128646247  0.000000
0.435  0.000000  0.000000  0.000000  -29.60900081602882  -0.8438971319401486  16.389052645518856  54.72324627636767  -4.869491619147847  -12.155373446748763  20.615637900738772  31.278476110377504  -9.405630608844307  23.388818443183936  0.000000
0.44999999999999996  0.000000  0.000000  0.000000  -29.655620050681094  -0.768900878970643  16.58229879125934  54.84026190791514  -4.661753456528697  -12.15009698910575  20.610327352416252  32.06477177888516  -9.90607141728257  23.268743334484657  0.000000
0.46499999999999997  0.000000  0.000000  0.000000  -29.704958456139206  -0.6973596470731079  16.777912728420663  54.9639213897283  -4.4373705399063486  -12.144620196767281  20.60168470300933  32.844040662037244  -10.390854858379386  23.144640731664946  0.000000
0.48  0.000000  0.000000  0.000000  -29.756980937750086  -0.6290947750160328  16.975570996625493  55.093472234781665  -4.196581708166345  -12.139003463400638  20.590599112579095  33.6150694562883  -10.860262521944716  23.016360013658222  0.000000
0.495  0.000000  0.000000  0.000000  -29.811603792148993  -0.5639245909112716  17.17500661178546  55.22805426682749  -3.9397168638373685  -12.133327255517766  20.577901361301677  34.3768949414726  -11.31486545124901  22.88377289677482  0.000000
0.51  0.000000  0.000000  0.000000  -29.86866269190184  -0.5016689133204965  17.376016868783594  55.36677366474106  -3.6670806120123247  -12.127651515522896  20.564587505020416  35.12850089125188  -11.755523619138106  22.74670028668396  0.000000
0.525  0.000000  0.000000  0.000000  -29.92794781932767  -0.4421082761682337  17.578442885638662  55.50877125623286  -3.3790579451452403  -12.122096760952957  20.55151045524833  35.86914050059835  -12.1830748918303  22.6050260774235  0.000000
0.54  0.000000  0.000000  0.000000  -29.989173307268615  -0.38499359524418486  17.78215975079995  55.65316714623233  -3.076011531670719  -12.116748108148894  20.53964716849735  36.59801237307741  -12.598526013509945  22.458622785829004  0.000000
0.5549999999999999  0.000000  0.000000  0.000000  -30.05206157212422  -0.3300715529858703  17.98709056400446  55.79904187775549  -2.7583859033580898  -12.111631538164637  20.529793105316543  37.314543959030345  -13.002815525559312  22.307390383888425  0.000000
0.57  0.000000  0.000000  0.000000  -30.116257980276497  -0.27699311675103266  18.193176155094203  55.94551708168457  -2.4266081998322675  -12.10677148455218  20.522797267889477  38.018075068057314  -13.396782198249532  22.15129910010181  0.000000
0.585  0.000000  0.000000  0.000000  -30.18149945306435  -0.22536598484317552  18.40034275859697  56.09170624355835  -2.0811799109162568  -12.102067188802534  20.519371846048468  38.70814136419817  -13.781283423666997  21.990400879175482  0.000000
